<svg xmlns="http://www.w3.org/2000/svg" width="14.104" height="18.449" viewBox="0 0 14.104 18.449">
  <g id="book-icon" transform="translate(22.104 14.158) rotate(180)">
    <g id="Grupo_12" data-name="Grupo 12" transform="translate(8 -1.961)">
      <g id="Grupo_11" data-name="Grupo 11">
        <path id="Caminho_6" data-name="Caminho 6" d="M21.6,2.015a.5.5,0,0,1,0-1.007A.5.5,0,1,0,21.6,0H9.511A1.511,1.511,0,0,0,8,1.511v13.6a1.007,1.007,0,0,0,1.007,1.007H21.1A1.007,1.007,0,0,0,22.1,15.111V2.519A.5.5,0,0,0,21.6,2.015Zm-.5,13.1H9.007V2.93a1.506,1.506,0,0,0,.5.092H12.03V2.015H9.511a.5.5,0,1,1,0-1.007h10.67a1.5,1.5,0,0,0-.092.5,1.5,1.5,0,0,0,.092.5H14.044V3.022H21.1Z" transform="translate(-8)" fill-rule="evenodd"/>
      </g>
    </g>
    <path id="Caminho_7" data-name="Caminho 7" d="M4.03,0H0V5.339L2.015,4,4.03,5.339V0Z" transform="translate(15.052 1.048) rotate(180)"/>
  </g>
</svg>
