<svg xmlns="http://www.w3.org/2000/svg" width="21.314" height="15.215" viewBox="0 0 21.314 15.215"><g transform="translate(-1167.691 0.5)"><g transform="translate(1168.191 1.182)"><ellipse cx="3.052" cy="3.062" rx="3.052" ry="3.062" transform="translate(3.448 0)" fill="none" stroke="#000" stroke-linecap="round" stroke-linejoin="round" stroke-width="1"/><path d="M-1921.828-174.141h12.96m-12.96,0q-.02-.248-.02-.5a6.437,6.437,0,0,1,6.5-6.373,6.437,6.437,0,0,1,6.5,6.373h0q0,.249-.02.5" transform="translate(1921.848 187.135)" stroke="#000" stroke-linecap="round" stroke-linejoin="round" stroke-width="1"/></g><g transform="translate(1175.506 0)"><ellipse cx="3.052" cy="3.062" rx="3.052" ry="3.062" transform="translate(3.448)" fill="none" stroke="#000" stroke-linecap="round" stroke-linejoin="round" stroke-width="1"/><path d="M-1921.828-174.141h12.96m-12.96,0q-.02-.248-.02-.5a6.437,6.437,0,0,1,6.5-6.373,6.437,6.437,0,0,1,6.5,6.373h0q0,.249-.02.5" transform="translate(1921.848 187.135)" fill="none" stroke="#000" stroke-linecap="round" stroke-linejoin="round" stroke-width="1"/></g></g></svg>