<svg xmlns="http://www.w3.org/2000/svg" width="16.939" height="16.285" viewBox="0 0 16.939 16.285"><rect width="1.034" height="1.903" transform="translate(3.489 7.476)" fill="#010101"/><rect width="1.034" height="1.903" transform="translate(3.489 11.282)" fill="#010101"/><rect width="1.034" height="1.903" transform="translate(3.489 3.669)" fill="#010101"/><rect width="1.034" height="1.903" transform="translate(6.661 11.282)" fill="#010101"/><rect width="1.034" height="1.903" transform="translate(6.661 7.476)" fill="#010101"/><rect width="1.034" height="1.903" transform="translate(6.661 3.669)" fill="#010101"/><rect width="2.023" height="1.034" transform="translate(12.571 9.67)" fill="#010101"/><rect width="2.023" height="1.034" transform="translate(12.571 12.208)" fill="#010101"/><path d="M30.729,35.042h3.707a2.05,2.05,0,0,0,2.047-2.047V25.432H30.729V18.757H19.544V35.042H30.729Zm4.72-8.576v6.529a1.015,1.015,0,0,1-1.013,1.013H30.729V26.464ZM20.578,34.008V19.791H29.7V34.007H20.578Z" transform="translate(-19.544 -18.757)" fill="#010101"/></svg>