<?xml version="1.0" encoding="utf-8"?>
<!-- Generator: Adobe Illustrator 24.0.1, SVG Export Plug-In . SVG Version: 6.00 Build 0)  -->
<svg version="1.1" id="Camada_1" xmlns="http://www.w3.org/2000/svg" xmlns:xlink="http://www.w3.org/1999/xlink" x="0px" y="0px"
	 viewBox="0 0 110 107.4" style="enable-background:new 0 0 110 107.4;" xml:space="preserve">
<style type="text/css">
	.st0{fill-rule:evenodd;clip-rule:evenodd;fill:#221E1B;}
</style>
<path class="st0" d="M55,0.1c-30.4,0-55,24.6-55,55c0,24.3,15.8,44.9,37.6,52.2c2.8,0.5,3.8-1.2,3.8-2.7c0-1.3,0-4.8-0.1-9.4
	c-15.3,3.3-18.5-7.4-18.5-7.4c-2.5-6.4-6.1-8-6.1-8c-5-3.4,0.4-3.3,0.4-3.3c5.5,0.4,8.4,5.7,8.4,5.7c4.9,8.4,12.9,6,16,4.6
	c0.5-3.6,1.9-6,3.5-7.4C32.7,78,19.9,73.3,19.9,52.2c0-6,2.1-10.9,5.7-14.8c-0.6-1.4-2.5-7,0.5-14.6c0,0,4.6-1.5,15.1,5.6
	c4.4-1.2,9.1-1.8,13.8-1.9c4.7,0,9.4,0.6,13.8,1.9c10.5-7.1,15.1-5.6,15.1-5.6c3,7.6,1.1,13.2,0.5,14.6c3.5,3.8,5.7,8.8,5.7,14.8
	C90.1,73.3,77.2,78,65,79.3c2,1.7,3.7,5.1,3.7,10.2c0,7.4-0.1,13.3-0.1,15.1c0,1.5,1,3.2,3.8,2.6C94.3,100,110,79.4,110,55.1
	C110,24.7,85.4,0.1,55,0.1z"/>
</svg>
